<svg version="1.1" id="Layer_1" xmlns="http://www.w3.org/2000/svg" xmlns:xlink="http://www.w3.org/1999/xlink" x="0px" y="0px"
	 width="100%" viewBox="0 0 352 352" enable-background="new 0 0 352 352" xml:space="preserve">
<path fill="#963A2F" opacity="1.000000" stroke="none" 
	d="
M163.304199,315.630676 
	C153.709000,318.045868 144.732635,317.334320 136.056274,313.550873 
	C113.008766,303.500763 108.130783,274.439972 126.570969,257.249146 
	C139.944031,244.782120 158.799591,241.904205 175.250031,249.795044 
	C176.410904,250.351898 177.652664,250.740128 178.865662,251.210190 
	C180.524002,249.054306 179.863358,246.818375 179.868301,244.752228 
	C179.949722,210.760834 179.952103,176.769241 180.027954,142.777817 
	C180.045670,134.839798 181.246490,133.466171 188.987778,131.396896 
	C223.222412,122.245888 257.454071,113.083817 291.685577,103.921196 
	C300.513855,101.558167 303.340790,103.715965 303.352509,112.897514 
	C303.379517,134.057648 303.059143,155.224792 303.503845,176.375946 
	C303.952209,197.699875 303.754883,219.019272 303.934967,240.339874 
	C304.071136,256.462189 296.661713,268.131348 282.581512,275.383759 
	C268.334473,282.722107 253.779129,282.756256 240.354950,273.685516 
	C219.900284,259.864258 220.516479,230.955292 241.321182,216.760498 
	C255.190048,207.297928 269.973389,205.862152 285.365875,213.061600 
	C286.406494,213.548340 287.491760,213.939682 288.500549,214.352585 
	C290.619873,212.979858 289.929810,210.971848 289.929626,209.263367 
	C289.926910,181.270309 289.877380,153.277237 289.822662,125.284210 
	C289.810242,118.927048 289.643341,118.734154 283.727051,120.312698 
	C255.102509,127.950035 226.505585,135.691147 197.863632,143.262161 
	C194.442825,144.166397 193.983643,146.259003 193.994247,149.176163 
	C194.045135,163.172546 194.008301,177.169235 194.011185,191.165817 
	C194.017014,219.492294 194.017990,247.818802 194.040985,276.145264 
	C194.057129,296.033661 183.118240,310.242859 163.304199,315.630676 
z"/>
<path fill="#963A2F" opacity="1.000000" stroke="none" 
	d="
M150.430420,76.563660 
	C159.255005,84.268578 167.309952,92.216156 173.818268,101.591934 
	C175.238190,103.637444 176.689194,105.741272 177.626602,108.023338 
	C179.078384,111.557648 178.890137,115.023468 175.063965,117.091217 
	C171.408401,119.066757 168.119034,118.169548 165.999176,114.667717 
	C159.251572,103.521294 149.745605,94.878502 140.340057,86.165054 
	C134.260605,80.532928 127.878471,75.227501 120.416748,68.715042 
	C120.416748,73.318611 120.417183,76.567039 120.416687,79.815468 
	C120.411705,112.300781 120.424995,144.786118 120.392410,177.271393 
	C120.379356,190.289658 113.397568,200.435669 101.119316,205.478287 
	C88.952141,210.475281 74.887703,208.037704 66.242897,199.433731 
	C53.247372,186.499527 57.073227,164.646408 74.029068,155.464783 
	C82.586273,150.831055 91.589508,149.426346 101.050713,152.464706 
	C102.461052,152.917618 103.918488,153.223831 105.340805,153.594437 
	C107.656418,151.674423 106.770851,149.160233 106.775688,146.979462 
	C106.841866,117.151047 106.821220,87.322456 106.822479,57.493904 
	C106.822533,56.327473 106.800232,55.160183 106.836227,53.994774 
	C106.934410,50.816635 107.751244,48.057362 111.084381,46.761379 
	C114.251320,45.530025 116.896912,46.380150 119.337227,48.584557 
	C129.596222,57.851810 139.889618,67.080986 150.430420,76.563660 
z"/>
</svg>